<svg width="537" height="456" viewBox="0 0 537 456" fill="none" xmlns="http://www.w3.org/2000/svg">
<path d="M268.5 456C416.788 456 537 378.898 537 283.787C537 188.677 416.788 111.575 268.5 111.575C120.212 111.575 0 188.677 0 283.787C0 378.898 120.212 456 268.5 456Z" fill="#FAFAFA"/>
<path d="M104.024 340.421L246.412 425.87C248.255 426.84 250.292 427.345 252.357 427.345C254.423 427.345 256.459 426.84 258.302 425.87L475.88 295.387C479.173 293.411 479.173 290.211 475.88 288.235L333.491 202.787C331.647 201.822 329.611 201.32 327.547 201.32C325.482 201.32 323.446 201.822 321.602 202.787L104.024 333.282C100.742 335.246 100.742 338.445 104.024 340.421Z" fill="#E0E0E0"/>
<path d="M299.068 207.895L225.353 252.053C224.362 252.576 223.266 252.849 222.155 252.849C221.043 252.849 219.947 252.576 218.957 252.053L145.384 207.908C143.625 206.845 143.625 205.129 145.384 204.066L219.099 159.909C220.09 159.385 221.186 159.112 222.297 159.112C223.409 159.112 224.505 159.385 225.496 159.909L299.068 204.066C300.84 205.129 300.84 206.846 299.068 207.895Z" fill="#E0E0E0"/>
<path d="M381.332 237.329L373.687 232.734C373.687 232.734 369.145 213.12 370.952 195.457C373.509 170.643 389.238 161.292 395.219 163.442C401.199 165.591 402.923 172.804 393.031 187.589C387.193 196.322 380.024 214.491 381.332 237.329Z" fill="#B9FF66"/>
<g opacity="0.25">
<path d="M381.332 237.329L373.687 232.734C373.687 232.734 369.145 213.12 370.952 195.457C373.509 170.643 389.238 161.292 395.219 163.442C401.199 165.591 402.923 172.804 393.031 187.589C387.193 196.322 380.024 214.491 381.332 237.329Z" fill="white"/>
</g>
<path d="M378.123 227.695H378.195C378.263 227.681 378.328 227.654 378.386 227.614C378.444 227.575 378.493 227.524 378.532 227.464C378.571 227.404 378.598 227.337 378.611 227.266C378.625 227.196 378.624 227.123 378.611 227.052C374.426 204.165 382.178 178.436 391.689 167.764C391.787 167.661 391.842 167.521 391.842 167.375C391.842 167.23 391.787 167.09 391.689 166.986C391.64 166.934 391.582 166.893 391.518 166.865C391.454 166.837 391.384 166.822 391.315 166.822C391.245 166.822 391.176 166.837 391.111 166.865C391.047 166.893 390.989 166.934 390.94 166.986C381.238 177.88 373.379 204.041 377.636 227.262C377.659 227.38 377.72 227.487 377.808 227.565C377.897 227.643 378.007 227.689 378.123 227.695Z" fill="white"/>
<path d="M401.676 249.791C402.865 250.396 405.861 247.691 406.705 247.037C408.155 245.896 409.298 244.385 410.022 242.652C410.823 240.704 411.023 238.546 410.593 236.476C410.363 235.369 410.061 234.28 409.689 233.215C409.345 232.165 408.988 231.128 408.643 230.078C408.238 229.064 408.032 227.976 408.037 226.879C408.203 224.68 409.999 223.05 411.604 221.642C413.209 220.234 415.266 218.06 415.17 215.466C414.932 213.43 414.054 211.533 412.674 210.068C411.378 208.549 409.88 207.215 408.703 205.585C407.784 204.461 407.263 203.044 407.228 201.57C407.302 200.663 407.552 199.78 407.965 198.976C408.911 197.292 409.726 195.533 410.403 193.715C410.729 192.797 410.797 191.803 410.599 190.847C410.401 189.891 409.945 189.014 409.285 188.317C408.645 187.869 407.925 187.558 407.167 187.403C406.41 187.248 405.63 187.252 404.874 187.415C403.445 187.677 402.087 188.254 400.891 189.107C396.991 191.64 394.946 196.704 390.761 198.717C389.095 199.356 387.391 199.884 385.661 200.298C384.796 200.51 383.984 200.909 383.277 201.469C382.571 202.029 381.985 202.737 381.559 203.547C380.144 206.881 383.247 210.723 382.308 214.231C381.487 217.331 378.741 218.653 377.219 221.481C376.626 222.732 376.43 224.146 376.66 225.52C376.913 227.844 377.574 230.101 378.61 232.178C379.774 234.317 381.064 236.38 382.474 238.353L401.676 249.791Z" fill="#B9FF66"/>
<g opacity="0.55">
<path d="M401.676 249.791C402.865 250.396 405.861 247.691 406.705 247.037C408.155 245.896 409.298 244.385 410.022 242.652C410.823 240.704 411.023 238.546 410.593 236.476C410.363 235.369 410.061 234.28 409.689 233.215C409.345 232.165 408.988 231.128 408.643 230.078C408.238 229.064 408.032 227.976 408.037 226.879C408.203 224.68 409.999 223.05 411.604 221.642C413.209 220.234 415.266 218.06 415.17 215.466C414.932 213.43 414.054 211.533 412.674 210.068C411.378 208.549 409.88 207.215 408.703 205.585C407.784 204.461 407.263 203.044 407.228 201.57C407.302 200.663 407.552 199.78 407.965 198.976C408.911 197.292 409.726 195.533 410.403 193.715C410.729 192.797 410.797 191.803 410.599 190.847C410.401 189.891 409.945 189.014 409.285 188.317C408.645 187.869 407.925 187.558 407.167 187.403C406.41 187.248 405.63 187.252 404.874 187.415C403.445 187.677 402.087 188.254 400.891 189.107C396.991 191.64 394.946 196.704 390.761 198.717C389.095 199.356 387.391 199.884 385.661 200.298C384.796 200.51 383.984 200.909 383.277 201.469C382.571 202.029 381.985 202.737 381.559 203.547C380.144 206.881 383.247 210.723 382.308 214.231C381.487 217.331 378.741 218.653 377.219 221.481C376.626 222.732 376.43 224.146 376.66 225.52C376.913 227.844 377.574 230.101 378.61 232.178C379.774 234.317 381.064 236.38 382.474 238.353L401.676 249.791Z" fill="white"/>
</g>
<path d="M390.63 243.801C390.763 243.788 390.887 243.722 390.974 243.615C391.06 243.509 391.103 243.372 391.094 243.233C389.263 222.643 397.514 199.372 403.994 192.393C404.04 192.345 404.076 192.287 404.101 192.224C404.125 192.161 404.138 192.093 404.137 192.025C404.137 191.956 404.123 191.889 404.098 191.826C404.072 191.763 404.035 191.706 403.988 191.658C403.941 191.611 403.885 191.573 403.825 191.547C403.764 191.522 403.698 191.509 403.633 191.509C403.567 191.51 403.502 191.524 403.442 191.551C403.381 191.577 403.326 191.616 403.28 191.665C396.658 198.779 388.24 222.445 390.095 243.332C390.107 243.467 390.17 243.592 390.27 243.68C390.37 243.768 390.499 243.811 390.63 243.801Z" fill="white"/>
<path d="M392.593 218.406H392.747C397.379 216.818 402.163 215.754 407.015 215.232C407.08 215.226 407.144 215.206 407.203 215.174C407.261 215.142 407.313 215.098 407.355 215.046C407.397 214.993 407.428 214.932 407.447 214.866C407.467 214.801 407.473 214.732 407.467 214.664C407.462 214.595 407.444 214.528 407.414 214.466C407.384 214.405 407.342 214.35 407.291 214.306C407.239 214.262 407.18 214.23 407.116 214.211C407.052 214.191 406.986 214.186 406.92 214.194C401.979 214.718 397.108 215.795 392.391 217.406C392.329 217.429 392.272 217.465 392.224 217.511C392.175 217.558 392.136 217.613 392.109 217.675C392.081 217.737 392.066 217.804 392.063 217.872C392.06 217.941 392.071 218.009 392.093 218.073C392.128 218.179 392.196 218.27 392.287 218.33C392.378 218.391 392.485 218.418 392.593 218.406Z" fill="white"/>
<path d="M95.7246 306.701C95.7246 310.098 98.1738 312.259 101.182 314.112L224.595 388.135C226.285 389.024 228.152 389.487 230.046 389.487C231.94 389.487 233.808 389.024 235.498 388.135L434.588 268.719C437.608 266.904 440.045 264.582 440.045 261.197C440.045 257.813 437.608 255.713 434.588 253.91L311.139 179.8C309.451 178.905 307.583 178.439 305.688 178.439C303.792 178.439 301.924 178.905 300.236 179.8L101.182 299.216C98.162 301.019 95.7246 303.267 95.7246 306.701Z" fill="#37474F"/>
<path d="M101.183 305.75L224.596 379.773C226.286 380.662 228.153 381.125 230.047 381.125C231.941 381.125 233.809 380.662 235.499 379.773L434.589 260.357C437.609 258.554 437.609 255.627 434.589 253.823L311.14 179.8C309.452 178.905 307.584 178.439 305.689 178.439C303.793 178.439 301.925 178.905 300.237 179.8L101.183 299.216C98.163 301.019 98.163 303.946 101.183 305.75Z" fill="#455A64"/>
<path d="M230.052 381.143V389.456C228.153 389.497 226.274 389.034 224.595 388.109L101.182 314.086C98.1738 312.283 95.7246 310.109 95.7246 306.675C95.7246 303.501 97.9242 301.29 100.754 299.486C98.376 301.203 98.376 304.093 101.182 305.773L224.595 379.797C226.272 380.726 228.152 381.19 230.052 381.143Z" fill="#263238"/>
<path d="M93.3589 300.079C90.981 298.943 90.3152 296.967 90.0893 293.496L79.3888 130.886C79.3816 128.98 79.8404 127.103 80.7221 125.431C81.6038 123.759 82.8796 122.346 84.4299 121.326L283.532 1.9106C286.54 0.107263 288.739 -0.880872 291.521 1.09539C294.304 3.07165 294.363 4.1586 294.589 7.64176L305.29 170.239C305.299 172.147 304.841 174.027 303.959 175.701C303.077 177.376 301.8 178.79 300.248 179.811L101.158 299.289C98.1504 301.03 96.4383 301.561 93.3589 300.079Z" fill="#37474F"/>
<path d="M294.601 7.6299C294.364 4.17144 291.736 2.81276 288.728 4.6161L89.6261 124.032C88.0468 125.045 86.7609 126.483 85.9047 128.194L80.709 125.477C81.5798 123.773 82.8675 122.337 84.4423 121.314L283.532 1.9111C286.552 0.0954114 288.764 -0.892725 291.534 1.09589C294.304 3.0845 294.364 4.17144 294.601 7.6299Z" fill="#455A64"/>
<path d="M100.755 299.463C98.009 301.142 96.2731 301.352 93.3602 300.08C91.1369 299.104 90.3284 296.968 90.0906 293.497L79.39 130.887C79.3191 128.995 79.773 127.122 80.6979 125.49L85.8936 128.182C84.978 129.818 84.5247 131.689 84.5857 133.58L95.2863 296.189C95.5003 299.426 98.1873 301.044 100.755 299.463Z" fill="#263238"/>
<path d="M93.0865 130.245L284.686 15.3743C286.493 14.2873 288.075 15.1025 288.253 17.1899L298.24 168.88C298.242 170.024 297.966 171.15 297.438 172.154C296.91 173.158 296.148 174.007 295.22 174.624L103.621 289.494C101.813 290.581 100.232 289.766 100.054 287.679L90.0666 135.988C90.0592 134.843 90.3326 133.715 90.861 132.71C91.3893 131.705 92.1552 130.857 93.0865 130.245Z" fill="black"/>
<path d="M93.0865 130.245C92.1552 130.857 91.3893 131.706 90.861 132.71C90.3326 133.715 90.0592 134.843 90.0666 135.988L99.8873 285.159L289.287 171.586C290.218 170.971 290.983 170.123 291.514 169.119C292.044 168.114 292.321 166.987 292.319 165.842L282.498 16.6714L93.0865 130.245Z" fill="#B9FF66"/>
<path d="M118.02 300.166L300.988 190.434C301.784 190.014 302.664 189.795 303.556 189.795C304.449 189.795 305.328 190.014 306.124 190.434L312.782 194.312C313.093 194.422 313.363 194.629 313.554 194.906C313.745 195.183 313.847 195.515 313.847 195.856C313.847 196.197 313.745 196.529 313.554 196.806C313.363 197.083 313.093 197.29 312.782 197.4L129.803 307.12C129.005 307.54 128.123 307.758 127.229 307.758C126.334 307.758 125.452 307.54 124.655 307.12L118.02 303.254C117.71 303.144 117.44 302.936 117.249 302.659C117.058 302.382 116.955 302.05 116.955 301.71C116.955 301.369 117.058 301.037 117.249 300.76C117.44 300.483 117.71 300.275 118.02 300.166Z" fill="#263238"/>
<path d="M135.983 311.184L318.951 201.439C319.66 201.018 320.454 200.775 321.269 200.73C322.085 200.685 322.899 200.839 323.647 201.18L371.265 229.737C372.454 230.441 372.24 231.713 370.825 232.553L188.071 342.149C187.355 342.581 186.551 342.831 185.725 342.878C184.898 342.926 184.072 342.769 183.315 342.421L135.484 314.012C134.366 313.296 134.568 312.036 135.983 311.184Z" fill="#263238"/>
<path d="M294.494 247.536L300.225 244.102C300.474 243.954 300.498 243.731 300.225 243.595L294.744 240.31C294.614 240.243 294.472 240.209 294.327 240.209C294.183 240.209 294.041 240.243 293.911 240.31L288.193 243.744C287.943 243.892 287.919 244.114 288.193 244.238L293.662 247.523C293.789 247.595 293.931 247.634 294.076 247.637C294.221 247.639 294.365 247.604 294.494 247.536ZM286.171 235.641L280.441 239.087C280.203 239.223 280.179 239.458 280.441 239.581L285.922 242.867C286.05 242.936 286.193 242.972 286.338 242.972C286.483 242.972 286.625 242.936 286.754 242.867L292.485 239.433C292.722 239.285 292.746 239.062 292.485 238.927L287.004 235.641C286.873 235.577 286.731 235.544 286.587 235.544C286.444 235.544 286.301 235.577 286.171 235.641ZM267.659 246.757L257.969 252.575C257.732 252.723 257.708 252.946 257.969 253.069L263.45 256.355C263.579 256.424 263.722 256.46 263.867 256.46C264.011 256.46 264.154 256.424 264.283 256.355L273.973 250.537C274.222 250.389 274.234 250.167 273.973 250.043L268.492 246.757C268.363 246.684 268.218 246.645 268.071 246.643C267.924 246.64 267.779 246.676 267.647 246.745L267.659 246.757ZM277.801 240.68L272.07 244.114C271.833 244.262 271.809 244.485 272.07 244.621L277.551 247.906C277.681 247.973 277.823 248.007 277.968 248.007C278.112 248.007 278.254 247.973 278.384 247.906L284.114 244.472C284.352 244.324 284.376 244.102 284.114 243.978L278.633 240.693C278.513 240.628 278.38 240.592 278.244 240.587C278.108 240.583 277.973 240.611 277.849 240.668L277.801 240.68ZM255.33 254.156L249.599 257.59C249.349 257.738 249.338 257.96 249.599 258.096L255.08 261.382C255.21 261.446 255.352 261.479 255.496 261.479C255.64 261.479 255.782 261.446 255.912 261.382L261.631 257.936C261.881 257.8 261.905 257.578 261.691 257.442L256.21 254.156C256.075 254.073 255.922 254.028 255.765 254.026C255.609 254.024 255.455 254.064 255.318 254.144L255.33 254.156ZM246.936 259.171L241.217 262.605C240.967 262.753 240.944 262.975 241.158 263.099L246.639 266.397C246.768 266.463 246.91 266.498 247.055 266.498C247.199 266.498 247.342 266.463 247.471 266.397L253.202 262.963C253.451 262.815 253.475 262.592 253.202 262.469L247.721 259.171C247.598 259.112 247.464 259.082 247.328 259.082C247.193 259.082 247.059 259.112 246.936 259.171ZM268.42 272.585L274.151 269.151C274.389 269.003 274.413 268.78 274.151 268.645L268.67 265.359C268.54 265.295 268.398 265.262 268.254 265.262C268.11 265.262 267.968 265.295 267.838 265.359L262.107 268.805C261.869 268.941 261.845 269.163 262.107 269.299L267.588 272.585C267.717 272.654 267.859 272.69 268.004 272.69C268.149 272.69 268.292 272.654 268.42 272.585ZM260.098 277.6L265.828 274.166C266.066 274.018 266.09 273.795 265.828 273.672L260.347 270.386C260.219 270.317 260.076 270.281 259.931 270.281C259.786 270.281 259.644 270.317 259.515 270.386L253.784 273.82C253.546 273.968 253.523 274.19 253.784 274.326L259.265 277.612C259.384 277.663 259.512 277.689 259.641 277.687C259.77 277.685 259.897 277.655 260.014 277.6H260.098ZM251.775 282.627L257.506 279.193C257.743 279.045 257.767 278.822 257.506 278.686L252.025 275.401C251.895 275.335 251.753 275.3 251.608 275.3C251.464 275.3 251.322 275.335 251.192 275.401L245.462 278.835C245.224 278.983 245.2 279.205 245.462 279.329L250.943 282.614C251.059 282.672 251.187 282.703 251.316 282.705C251.445 282.707 251.573 282.68 251.692 282.627H251.775ZM243.452 287.641L249.171 284.208C249.421 284.059 249.445 283.837 249.231 283.714L243.75 280.428C243.621 280.358 243.478 280.321 243.333 280.321C243.188 280.321 243.046 280.358 242.917 280.428L237.186 283.862C236.937 284.01 236.913 284.232 237.186 284.368L242.668 287.654C242.894 287.744 243.146 287.74 243.369 287.641H243.452ZM286.255 252.55L291.985 249.117C292.235 248.981 292.247 248.746 291.985 248.623L286.504 245.337C286.376 245.268 286.233 245.232 286.088 245.232C285.943 245.232 285.801 245.268 285.672 245.337L279.953 248.771C279.703 248.919 279.68 249.141 279.894 249.277L285.375 252.563C285.5 252.621 285.637 252.651 285.774 252.649C285.912 252.647 286.048 252.613 286.171 252.55H286.255ZM276.898 267.558L289.679 259.9C289.928 259.751 289.94 259.529 289.679 259.393L276.374 251.414C276.245 251.348 276.103 251.313 275.958 251.313C275.814 251.313 275.671 251.348 275.542 251.414L268.932 255.379C268.682 255.527 268.67 255.749 268.932 255.885L275.97 260.11C276.196 260.233 276.172 260.455 275.97 260.604L270.691 263.778C270.441 263.926 270.418 264.149 270.632 264.272L276.113 267.57C276.332 267.654 276.574 267.649 276.79 267.558H276.898ZM238.613 264.186L232.882 267.632C232.645 267.768 232.621 267.99 232.882 268.126L238.364 271.411C238.492 271.481 238.635 271.517 238.78 271.517C238.925 271.517 239.067 271.481 239.196 271.411L244.927 267.978C245.176 267.829 245.188 267.607 244.927 267.471L239.446 264.186C239.316 264.119 239.174 264.085 239.029 264.085C238.885 264.085 238.743 264.119 238.613 264.186ZM230.291 269.213L224.56 272.647C224.322 272.795 224.298 273.017 224.56 273.153L230.041 276.438C230.17 276.505 230.313 276.539 230.457 276.539C230.601 276.539 230.744 276.505 230.873 276.438L236.604 273.005C236.842 272.856 236.865 272.634 236.604 272.511L231.123 269.225C230.984 269.136 230.824 269.088 230.661 269.086C230.497 269.084 230.337 269.128 230.195 269.213H230.291ZM183.921 322.831C184.051 322.898 184.193 322.932 184.338 322.932C184.482 322.932 184.624 322.898 184.754 322.831L190.484 319.397C190.734 319.249 190.746 319.027 190.484 318.903L185.003 315.618C184.875 315.549 184.732 315.512 184.587 315.512C184.442 315.512 184.3 315.549 184.171 315.618L178.44 319.052C178.191 319.2 178.167 319.422 178.44 319.558L183.921 322.831ZM163.281 309.38L157.491 312.876C157.241 313.012 157.218 313.246 157.491 313.37L162.972 316.655C163.101 316.725 163.243 316.761 163.388 316.761C163.533 316.761 163.676 316.725 163.804 316.655L169.523 313.222C169.773 313.073 169.797 312.851 169.583 312.715L164.102 309.43C163.969 309.35 163.82 309.304 163.667 309.296C163.515 309.287 163.362 309.316 163.222 309.38H163.281ZM173.899 319.459C174.028 319.526 174.17 319.56 174.315 319.56C174.459 319.56 174.601 319.526 174.731 319.459L180.45 316.025C180.699 315.877 180.723 315.655 180.45 315.531L174.981 312.234C174.851 312.167 174.709 312.133 174.564 312.133C174.42 312.133 174.278 312.167 174.148 312.234L168.465 315.667C168.215 315.816 168.192 316.038 168.465 316.161L173.899 319.459ZM196.988 324.857L202.719 321.411C202.968 321.275 202.992 321.04 202.719 320.917L197.238 317.631C197.109 317.562 196.966 317.526 196.822 317.526C196.677 317.526 196.534 317.562 196.405 317.631L190.687 321.065C190.437 321.213 190.413 321.436 190.687 321.571L196.156 324.857C196.278 324.912 196.409 324.94 196.542 324.94C196.675 324.94 196.807 324.912 196.929 324.857H196.988ZM187.786 329.896C187.914 329.966 188.057 330.002 188.202 330.002C188.347 330.002 188.489 329.966 188.618 329.896L194.349 326.463C194.598 326.314 194.61 326.092 194.349 325.969L188.868 322.671C188.738 322.604 188.596 322.57 188.451 322.57C188.307 322.57 188.165 322.604 188.035 322.671L182.304 326.104C182.067 326.253 182.043 326.475 182.304 326.598L187.786 329.896ZM171.651 304.366L165.921 307.799C165.671 307.948 165.659 308.17 165.921 308.293L171.402 311.591C171.531 311.658 171.674 311.692 171.818 311.692C171.962 311.692 172.105 311.658 172.234 311.591L177.965 308.157C178.203 308.009 178.226 307.787 177.965 307.663L172.484 304.366C172.347 304.289 172.194 304.249 172.038 304.249C171.882 304.249 171.729 304.289 171.592 304.366H171.651ZM213.514 279.255L207.701 282.688C207.451 282.837 207.439 283.059 207.701 283.195L213.182 286.48C213.311 286.547 213.453 286.581 213.598 286.581C213.742 286.581 213.884 286.547 214.014 286.48L219.745 283.047C219.982 282.898 220.006 282.676 219.745 282.553L214.264 279.267C214.139 279.199 214.001 279.162 213.861 279.16C213.72 279.158 213.581 279.19 213.455 279.255H213.514ZM179.962 299.289L174.232 302.723C173.994 302.871 173.97 303.093 174.232 303.229L179.713 306.515C179.842 306.581 179.984 306.616 180.129 306.616C180.273 306.616 180.415 306.581 180.545 306.515L186.276 303.069C186.513 302.933 186.537 302.71 186.276 302.575L180.795 299.289C180.666 299.22 180.523 299.184 180.378 299.184C180.234 299.184 180.091 299.22 179.962 299.289ZM221.825 274.178L216.095 277.624C215.857 277.76 215.833 277.995 216.095 278.118L221.576 281.404C221.704 281.473 221.847 281.509 221.992 281.509C222.137 281.509 222.279 281.473 222.408 281.404L228.139 277.97C228.376 277.822 228.4 277.6 228.139 277.464L222.658 274.178C222.524 274.122 222.38 274.097 222.236 274.106C222.092 274.114 221.952 274.156 221.825 274.228V274.178ZM205.085 284.232L199.378 287.716C199.128 287.864 199.104 288.086 199.378 288.21L204.859 291.495C204.987 291.564 205.13 291.601 205.275 291.601C205.42 291.601 205.563 291.564 205.691 291.495L211.41 288.061C211.66 287.913 211.683 287.691 211.41 287.555L205.929 284.269C205.798 284.201 205.652 284.166 205.505 284.168C205.359 284.171 205.214 284.209 205.085 284.282V284.232ZM196.703 289.247L190.984 292.681C190.734 292.829 190.71 293.051 190.924 293.187L196.405 296.473C196.535 296.539 196.677 296.574 196.822 296.574C196.966 296.574 197.108 296.539 197.238 296.473L202.945 293.113C203.194 292.977 203.206 292.743 202.945 292.619L197.464 289.334C197.347 289.27 197.219 289.234 197.087 289.228C196.956 289.221 196.824 289.245 196.703 289.297V289.247ZM188.38 294.274L182.649 297.708C182.411 297.856 182.388 298.079 182.649 298.202L188.13 301.488C188.259 301.557 188.402 301.593 188.546 301.593C188.691 301.593 188.834 301.557 188.963 301.488L194.622 298.054C194.86 297.906 194.884 297.683 194.622 297.547L189.165 294.348C189.035 294.282 188.893 294.247 188.749 294.247C188.604 294.247 188.462 294.282 188.332 294.348L188.38 294.274ZM226.605 297.646L232.336 294.2C232.585 294.064 232.597 293.83 232.336 293.706L226.855 290.421C226.726 290.351 226.583 290.315 226.438 290.315C226.294 290.315 226.151 290.351 226.022 290.421L220.292 293.854C220.054 294.003 220.03 294.225 220.292 294.361L225.773 297.646C225.893 297.711 226.025 297.748 226.16 297.757C226.295 297.765 226.43 297.744 226.557 297.696L226.605 297.646ZM304.719 224.5L298.988 227.934C298.739 228.082 298.715 228.304 298.988 228.428L304.469 231.713C304.598 231.782 304.741 231.819 304.885 231.819C305.03 231.819 305.173 231.782 305.302 231.713L311.02 228.279C311.27 228.131 311.294 227.909 311.08 227.773L305.599 224.487C305.452 224.413 305.29 224.38 305.127 224.391C304.965 224.402 304.808 224.456 304.671 224.549L304.719 224.5ZM294.494 230.626L288.763 234.06C288.525 234.208 288.502 234.431 288.763 234.554L294.244 237.852C294.374 237.918 294.516 237.953 294.66 237.953C294.805 237.953 294.947 237.918 295.077 237.852L300.807 234.418C301.045 234.27 301.069 234.048 300.807 233.924L295.326 230.626C295.197 230.56 295.054 230.525 294.91 230.525C294.766 230.525 294.623 230.56 294.494 230.626ZM313.006 219.51L307.275 222.944C307.037 223.092 307.014 223.314 307.275 223.45L312.756 226.735C312.886 226.802 313.028 226.836 313.172 226.836C313.317 226.836 313.459 226.802 313.589 226.735L319.319 223.302C319.557 223.154 319.581 222.931 319.319 222.808L313.838 219.522C313.714 219.459 313.578 219.426 313.44 219.426C313.302 219.426 313.166 219.459 313.042 219.522L313.006 219.51ZM266.732 264.173L272.451 260.74C272.7 260.591 272.724 260.369 272.451 260.233L266.982 256.948C266.852 256.881 266.71 256.847 266.566 256.847C266.421 256.847 266.279 256.881 266.149 256.948L260.419 260.381C260.169 260.53 260.145 260.752 260.419 260.875L265.959 264.21C266.086 264.272 266.226 264.301 266.366 264.297C266.507 264.293 266.644 264.255 266.768 264.186L266.732 264.173ZM322.208 214.458C322.079 214.392 321.937 214.357 321.792 214.357C321.648 214.357 321.506 214.392 321.376 214.458L315.645 217.892C315.408 218.04 315.384 218.262 315.645 218.386L321.126 221.671C321.255 221.741 321.398 221.777 321.543 221.777C321.687 221.777 321.83 221.741 321.959 221.671L327.69 218.238C327.927 218.089 327.951 217.867 327.69 217.731L322.208 214.458ZM234.927 292.669L240.658 289.235C240.908 289.087 240.932 288.864 240.658 288.728L235.177 285.443C235.048 285.376 234.905 285.342 234.761 285.342C234.617 285.342 234.474 285.376 234.345 285.443L228.626 288.877C228.376 289.025 228.353 289.247 228.626 289.371L234.095 292.656C234.223 292.728 234.365 292.767 234.51 292.769C234.655 292.772 234.798 292.737 234.927 292.669ZM337.605 231.083L343.336 227.649C343.574 227.501 343.598 227.279 343.336 227.155L337.855 223.87C337.726 223.801 337.584 223.764 337.439 223.764C337.294 223.764 337.151 223.801 337.023 223.87L331.351 227.328C331.114 227.477 331.09 227.699 331.351 227.835L336.833 231.12C336.956 231.171 337.09 231.195 337.223 231.188C337.356 231.182 337.486 231.146 337.605 231.083ZM321.4 231.417L327.131 227.971C327.38 227.835 327.392 227.612 327.131 227.477L321.65 224.191C321.52 224.125 321.378 224.09 321.233 224.09C321.089 224.09 320.947 224.125 320.817 224.191L315.134 227.649C314.896 227.798 314.873 228.02 315.134 228.156L320.615 231.441C320.74 231.496 320.875 231.523 321.01 231.518C321.146 231.514 321.279 231.479 321.4 231.417ZM330.067 219.164C329.938 219.097 329.796 219.063 329.651 219.063C329.507 219.063 329.365 219.097 329.235 219.164L323.516 222.598C323.267 222.746 323.243 222.968 323.516 223.092L328.974 226.414C329.102 226.485 329.245 226.521 329.39 226.521C329.535 226.521 329.678 226.485 329.806 226.414L335.537 222.981C335.786 222.832 335.81 222.61 335.537 222.487L330.067 219.164ZM331.839 218.114L345.143 226.093C345.272 226.162 345.415 226.199 345.559 226.199C345.704 226.199 345.847 226.162 345.976 226.093L351.706 222.659C351.944 222.511 351.968 222.289 351.706 222.153L338.485 214.149C338.357 214.079 338.214 214.042 338.069 214.042C337.924 214.042 337.781 214.079 337.653 214.149L331.922 217.583C331.637 217.768 331.625 217.978 331.839 218.114ZM312.495 229.23L306.764 232.664C306.526 232.812 306.502 233.035 306.764 233.158L312.245 236.456C312.374 236.523 312.517 236.557 312.661 236.557C312.805 236.557 312.948 236.523 313.077 236.456L318.808 233.022C319.046 232.874 319.07 232.652 318.808 232.528L313.327 229.23C313.197 229.166 313.054 229.134 312.909 229.136C312.765 229.138 312.623 229.174 312.495 229.243V229.23ZM249.48 267.027L243.75 270.46C243.512 270.609 243.488 270.831 243.75 270.954L249.231 274.24C249.359 274.309 249.502 274.345 249.647 274.345C249.792 274.345 249.934 274.309 250.063 274.24L255.794 270.806C256.031 270.658 256.055 270.436 255.794 270.312L250.313 267.014C250.181 266.952 250.038 266.921 249.894 266.925C249.749 266.93 249.608 266.969 249.48 267.039V267.027ZM328.403 236.147C328.531 236.217 328.674 236.253 328.819 236.253C328.964 236.253 329.107 236.217 329.235 236.147L334.966 232.714C335.204 232.565 335.227 232.343 334.966 232.207L329.532 228.885C329.402 228.821 329.26 228.788 329.116 228.788C328.972 228.788 328.83 228.821 328.7 228.885L323.029 232.355C322.791 232.491 322.767 232.726 323.029 232.85L328.403 236.147ZM257.85 262.024L252.132 265.458C251.882 265.606 251.858 265.828 252.072 265.964L257.553 269.25C257.683 269.314 257.825 269.347 257.969 269.347C258.113 269.347 258.255 269.314 258.386 269.25L264.116 265.804C264.366 265.668 264.378 265.433 264.116 265.31L258.635 262.024C258.514 261.961 258.38 261.927 258.244 261.925C258.108 261.923 257.974 261.952 257.85 262.012V262.024ZM192.244 317.816C192.373 317.886 192.515 317.922 192.66 317.922C192.805 317.922 192.948 317.886 193.076 317.816L198.795 314.383C199.045 314.234 199.069 314.012 198.795 313.876L193.314 310.591C193.186 310.527 193.046 310.494 192.904 310.494C192.762 310.494 192.622 310.527 192.494 310.591L186.763 314.037C186.513 314.173 186.49 314.407 186.763 314.531L192.244 317.816ZM182.507 307.219L176.788 310.64C176.538 310.788 176.526 311.011 176.788 311.147L182.269 314.432C182.399 314.496 182.541 314.529 182.685 314.529C182.829 314.529 182.971 314.496 183.101 314.432L188.832 310.986C189.07 310.85 189.093 310.628 188.832 310.492L183.351 307.206C183.221 307.135 183.076 307.098 182.929 307.098C182.782 307.098 182.637 307.135 182.507 307.206V307.219ZM201.447 312.765L207.165 309.331C207.415 309.183 207.439 308.96 207.165 308.837L201.756 305.539C201.627 305.47 201.484 305.433 201.34 305.433C201.195 305.433 201.052 305.47 200.923 305.539L195.193 308.973C194.943 309.121 194.931 309.343 195.193 309.467L200.674 312.765C200.796 312.82 200.928 312.847 201.061 312.845C201.195 312.843 201.326 312.811 201.447 312.752V312.765ZM209.769 307.75L215.5 304.316C215.738 304.168 215.762 303.946 215.5 303.81L210.078 300.524C209.949 300.458 209.807 300.423 209.662 300.423C209.518 300.423 209.376 300.458 209.246 300.524L203.515 303.97C203.278 304.106 203.254 304.328 203.515 304.464L208.996 307.75C209.125 307.812 209.266 307.844 209.408 307.842C209.55 307.84 209.69 307.804 209.817 307.738L209.769 307.75ZM218.092 302.723L223.823 299.289C224.06 299.141 224.084 298.918 223.823 298.783L218.342 295.497C218.212 295.431 218.07 295.396 217.925 295.396C217.781 295.396 217.639 295.431 217.509 295.497L211.779 298.931C211.541 299.079 211.517 299.301 211.779 299.425L217.26 302.71C217.4 302.797 217.56 302.843 217.723 302.843C217.887 302.843 218.047 302.797 218.187 302.71L218.092 302.723ZM190.746 302.204L185.11 305.625C184.873 305.774 184.849 305.996 185.11 306.119L190.591 309.405C190.72 309.474 190.863 309.51 191.008 309.51C191.152 309.51 191.295 309.474 191.424 309.405L197.155 305.971C197.392 305.823 197.416 305.601 197.155 305.465L191.673 302.179C191.548 302.121 191.411 302.091 191.274 302.093C191.136 302.096 191.001 302.129 190.877 302.192L190.746 302.204ZM199.069 297.177L193.338 300.611C193.1 300.759 193.076 300.981 193.338 301.117L198.819 304.403C198.948 304.469 199.091 304.504 199.235 304.504C199.38 304.504 199.522 304.469 199.651 304.403L205.382 300.969C205.62 300.821 205.644 300.598 205.382 300.475L199.901 297.189C199.694 297.096 199.46 297.088 199.247 297.165L199.069 297.177ZM232.74 277.056L227.009 280.49C226.771 280.638 226.748 280.86 227.009 280.996L232.49 284.282C232.62 284.348 232.762 284.383 232.906 284.383C233.051 284.383 233.193 284.348 233.322 284.282L239.053 280.848C239.291 280.7 239.315 280.477 239.053 280.354L233.572 277.056C233.444 276.987 233.301 276.951 233.156 276.951C233.011 276.951 232.868 276.987 232.74 277.056ZM224.417 282.071L218.686 285.517C218.437 285.653 218.413 285.887 218.686 286.011L224.167 289.297C224.296 289.366 224.439 289.402 224.584 289.402C224.728 289.402 224.871 289.366 225 289.297L230.719 285.863C230.968 285.715 230.992 285.492 230.778 285.356L225.297 282.071C225.15 281.99 224.985 281.95 224.818 281.954C224.652 281.959 224.489 282.007 224.346 282.096L224.417 282.071ZM241.11 272.115L235.379 275.549C235.142 275.697 235.118 275.92 235.379 276.056L240.86 279.341C240.99 279.408 241.132 279.442 241.276 279.442C241.421 279.442 241.563 279.408 241.693 279.341L247.423 275.895C247.661 275.759 247.685 275.537 247.423 275.401L241.942 272.115C241.813 272.049 241.671 272.014 241.526 272.014C241.382 272.014 241.239 272.049 241.11 272.115ZM207.617 292.212L201.887 295.584C201.649 295.732 201.625 295.954 201.887 296.078L207.368 299.363C207.496 299.432 207.639 299.469 207.784 299.469C207.929 299.469 208.071 299.432 208.2 299.363L213.931 295.929C214.18 295.781 214.192 295.559 213.931 295.423L208.45 292.137C208.319 292.073 208.176 292.04 208.032 292.043C207.888 292.045 207.746 292.081 207.617 292.15V292.212ZM215.94 287.184L210.221 290.618C209.971 290.766 209.948 290.989 210.221 291.125L215.69 294.41C215.82 294.477 215.962 294.511 216.106 294.511C216.251 294.511 216.393 294.477 216.523 294.41L222.253 290.976C222.503 290.828 222.527 290.606 222.253 290.482L216.772 287.197C216.66 287.129 216.535 287.088 216.405 287.075C216.276 287.062 216.146 287.078 216.023 287.123L215.94 287.184ZM205.239 319.892L210.958 316.458C211.208 316.31 211.232 316.087 210.958 315.951L205.477 312.666C205.348 312.599 205.205 312.565 205.061 312.565C204.917 312.565 204.774 312.599 204.645 312.666L198.914 316.1C198.664 316.248 198.641 316.47 198.914 316.594L204.395 319.879C204.54 319.959 204.702 319.996 204.865 319.988C205.029 319.979 205.187 319.924 205.323 319.83L205.239 319.892ZM161.082 317.73L155.601 314.444C155.472 314.375 155.329 314.339 155.185 314.339C155.04 314.339 154.897 314.375 154.768 314.444L149.121 317.816C148.871 317.965 148.847 318.187 149.121 318.323L154.602 321.608C154.731 321.675 154.874 321.709 155.018 321.709C155.162 321.709 155.305 321.675 155.434 321.608L161.165 318.175C161.331 318.014 161.331 317.816 161.153 317.668L161.082 317.73ZM171.996 320.571L166.515 317.285C166.385 317.222 166.243 317.188 166.099 317.188C165.955 317.188 165.813 317.222 165.683 317.285L156.873 322.572C156.635 322.72 156.611 322.942 156.873 323.078L162.354 326.364C162.483 326.43 162.626 326.465 162.77 326.465C162.914 326.465 163.057 326.43 163.186 326.364L171.996 321.09C172.27 320.867 172.282 320.645 172.032 320.509L171.996 320.571ZM153.009 311.171L147.492 307.935C147.362 307.871 147.22 307.838 147.076 307.838C146.932 307.838 146.79 307.871 146.66 307.935L139.609 312.172C139.371 312.32 139.348 312.542 139.609 312.666L145.09 315.951C145.219 316.021 145.362 316.057 145.506 316.057C145.651 316.057 145.794 316.021 145.923 315.951L152.973 311.727C153.175 311.529 153.199 311.307 153.009 311.171ZM158.418 307.935C158.548 308.002 158.69 308.036 158.835 308.036C158.979 308.036 159.121 308.002 159.251 307.935L164.981 304.501C165.219 304.353 165.243 304.131 164.981 304.007L159.5 300.722C159.372 300.653 159.229 300.616 159.084 300.616C158.939 300.616 158.797 300.653 158.668 300.722L153.009 304.143C152.771 304.291 152.747 304.514 153.009 304.65L158.418 307.935ZM182.138 323.881L176.657 320.596C176.528 320.529 176.385 320.495 176.241 320.495C176.097 320.495 175.954 320.529 175.825 320.596L164.815 327.204C164.565 327.34 164.542 327.562 164.756 327.698L170.237 330.983C170.366 331.05 170.508 331.084 170.653 331.084C170.797 331.084 170.94 331.05 171.069 330.983L182.09 324.375C182.293 324.239 182.316 323.992 182.102 323.881H182.138ZM186.002 330.959L180.485 327.698C180.357 327.628 180.214 327.592 180.069 327.592C179.924 327.592 179.782 327.628 179.653 327.698L172.603 331.934C172.365 332.083 172.341 332.305 172.603 332.428L178.084 335.714C178.212 335.783 178.355 335.819 178.5 335.819C178.645 335.819 178.787 335.783 178.916 335.714L185.966 331.477C186.157 331.317 186.18 331.095 185.966 330.959H186.002ZM220.672 270.596C220.801 270.663 220.944 270.697 221.088 270.697C221.232 270.697 221.375 270.663 221.504 270.596L227.223 267.162C227.473 267.014 227.497 266.792 227.283 266.668L221.801 263.383C221.673 263.312 221.53 263.276 221.385 263.276C221.24 263.276 221.097 263.312 220.969 263.383L215.238 266.817C214.989 266.965 214.977 267.187 215.238 267.323L220.672 270.596ZM203.92 280.638C204.05 280.702 204.192 280.735 204.336 280.735C204.48 280.735 204.622 280.702 204.752 280.638L210.483 277.192C210.732 277.056 210.744 276.821 210.483 276.698L205.013 273.351C204.885 273.281 204.742 273.245 204.597 273.245C204.452 273.245 204.31 273.281 204.181 273.351L198.45 276.784C198.213 276.933 198.189 277.155 198.45 277.291L203.92 280.638ZM166.789 302.871C166.917 302.94 167.06 302.976 167.205 302.976C167.35 302.976 167.492 302.94 167.621 302.871L173.352 299.437C173.589 299.289 173.613 299.067 173.352 298.931L167.871 295.645C167.74 295.581 167.598 295.548 167.454 295.548C167.311 295.548 167.168 295.581 167.038 295.645L161.331 299.128C161.094 299.264 161.07 299.487 161.331 299.622L166.789 302.871ZM212.29 275.574C212.418 275.644 212.561 275.681 212.706 275.681C212.851 275.681 212.994 275.644 213.122 275.574L218.853 272.14C219.103 271.992 219.126 271.77 218.853 271.634L213.384 268.41C213.254 268.343 213.112 268.309 212.968 268.309C212.823 268.309 212.681 268.343 212.551 268.41L206.833 271.844C206.583 271.992 206.559 272.214 206.833 272.338L212.29 275.574ZM195.514 285.702C195.643 285.769 195.786 285.803 195.93 285.803C196.074 285.803 196.217 285.769 196.346 285.702L202.077 282.268C202.315 282.12 202.338 281.898 202.077 281.774L196.596 278.476C196.466 278.41 196.324 278.376 196.18 278.376C196.035 278.376 195.893 278.41 195.763 278.476L190.033 281.91C189.795 282.058 189.771 282.281 190.033 282.404L195.514 285.702ZM190.08 331.403C189.952 331.334 189.809 331.298 189.664 331.298C189.519 331.298 189.377 331.334 189.248 331.403L180.438 336.69C180.188 336.838 180.164 337.06 180.438 337.184L185.919 340.469C186.047 340.54 186.19 340.576 186.335 340.576C186.48 340.576 186.623 340.54 186.751 340.469L195.573 335.183C195.811 335.035 195.835 334.812 195.573 334.689L190.08 331.403ZM183.505 292.953C183.635 293.016 183.778 293.05 183.921 293.05C184.065 293.05 184.207 293.016 184.338 292.953L190.056 289.506C190.306 289.371 190.33 289.148 190.056 289.012L184.587 285.727C184.459 285.657 184.316 285.62 184.171 285.62C184.026 285.62 183.883 285.657 183.755 285.727L178.024 289.161C177.775 289.309 177.751 289.531 178.024 289.667L183.505 292.953ZM175.123 297.98C175.253 298.046 175.395 298.081 175.539 298.081C175.684 298.081 175.826 298.046 175.956 297.98L181.686 294.546C181.936 294.398 181.948 294.175 181.686 294.052L176.253 290.643C176.123 290.576 175.981 290.542 175.837 290.542C175.692 290.542 175.55 290.576 175.42 290.643L169.654 294.101C169.404 294.25 169.381 294.472 169.654 294.595L175.123 297.98ZM345.143 238.358C345.014 238.292 344.872 238.257 344.727 238.257C344.583 238.257 344.44 238.292 344.311 238.358L330.21 246.819C329.96 246.955 329.937 247.19 330.21 247.313L335.691 250.599C335.82 250.668 335.962 250.704 336.107 250.704C336.252 250.704 336.395 250.668 336.523 250.599L350.624 242.138C350.862 241.99 350.886 241.767 350.624 241.644L345.143 238.358ZM326.631 249.475C326.502 249.408 326.36 249.374 326.215 249.374C326.071 249.374 325.928 249.408 325.799 249.475L320.068 252.909C319.831 253.057 319.807 253.279 320.068 253.403L325.549 256.688C325.678 256.758 325.821 256.794 325.966 256.794C326.11 256.794 326.253 256.758 326.382 256.688L332.112 253.254C332.35 253.106 332.374 252.884 332.112 252.748L326.631 249.475ZM213.681 314.939L219.412 311.505C219.649 311.357 219.673 311.134 219.412 311.011L213.931 307.725C213.802 307.656 213.659 307.62 213.514 307.62C213.37 307.62 213.227 307.656 213.098 307.725L207.368 311.159C207.13 311.307 207.106 311.529 207.368 311.665L212.849 314.951C212.984 314.989 213.125 314.996 213.263 314.97C213.401 314.945 213.532 314.887 213.645 314.803L213.681 314.939ZM309.986 259.554C309.857 259.487 309.714 259.453 309.57 259.453C309.426 259.453 309.283 259.487 309.154 259.554L303.423 262.988C303.173 263.136 303.161 263.358 303.423 263.482L308.904 266.767C309.033 266.836 309.175 266.873 309.32 266.873C309.465 266.873 309.608 266.836 309.736 266.767L315.467 263.333C315.705 263.185 315.729 262.963 315.467 262.827L309.986 259.554ZM353.609 233.393C353.48 233.324 353.337 233.288 353.193 233.288C353.048 233.288 352.905 233.324 352.776 233.393L347.046 236.827C346.808 236.975 346.784 237.197 347.046 237.333L352.527 240.619C352.656 240.685 352.799 240.72 352.943 240.72C353.087 240.72 353.23 240.685 353.359 240.619L359.09 237.173C359.327 237.037 359.351 236.814 359.09 236.679L353.609 233.393ZM367.46 231.664L354.156 223.672C354.026 223.606 353.884 223.571 353.739 223.571C353.595 223.571 353.453 223.606 353.323 223.672L347.593 227.106C347.343 227.254 347.319 227.477 347.593 227.6L360.897 235.579C361.025 235.649 361.168 235.685 361.313 235.685C361.458 235.685 361.601 235.649 361.729 235.579L367.46 232.146C367.603 231.874 367.626 231.651 367.412 231.528L367.46 231.664ZM278.693 278.328C278.564 278.259 278.422 278.223 278.277 278.223C278.132 278.223 277.989 278.259 277.861 278.328L270.715 282.441C270.477 282.59 270.453 282.812 270.715 282.948L276.196 286.233C276.325 286.3 276.468 286.334 276.612 286.334C276.756 286.334 276.899 286.3 277.028 286.233L284.079 282.009C284.328 281.861 284.34 281.638 284.079 281.515L278.693 278.328ZM299.844 265.631C299.715 265.564 299.572 265.53 299.428 265.53C299.284 265.53 299.141 265.564 299.012 265.631L290.154 270.88C289.917 271.028 289.893 271.251 290.154 271.374L295.635 274.66C295.764 274.729 295.907 274.765 296.051 274.765C296.196 274.765 296.339 274.729 296.468 274.66L305.278 269.373C305.527 269.225 305.539 269.003 305.278 268.879L299.844 265.631ZM259.313 289.951C259.183 289.887 259.041 289.854 258.897 289.854C258.753 289.854 258.611 289.887 258.481 289.951L211.267 318.125C211.03 318.273 211.006 318.496 211.267 318.619L216.748 321.917C216.878 321.984 217.02 322.018 217.165 322.018C217.309 322.018 217.451 321.984 217.581 321.917L264.723 293.644C264.972 293.496 264.996 293.274 264.782 293.138L259.313 289.951ZM209.52 319.817C209.389 319.754 209.247 319.721 209.103 319.721C208.96 319.721 208.817 319.754 208.687 319.817L201.589 323.992C201.34 324.141 201.316 324.363 201.53 324.486L207.011 327.772C207.139 327.842 207.282 327.879 207.427 327.879C207.572 327.879 207.715 327.842 207.843 327.772L214.894 323.548C215.143 323.399 215.167 323.177 214.894 323.041L209.52 319.817ZM268.967 284.134C268.838 284.067 268.695 284.033 268.551 284.033C268.407 284.033 268.264 284.067 268.135 284.134L261.084 288.358C260.847 288.506 260.823 288.728 261.084 288.852L266.566 292.15C266.695 292.216 266.837 292.251 266.982 292.251C267.126 292.251 267.268 292.216 267.398 292.15L274.448 287.925C274.686 287.777 274.71 287.555 274.448 287.419L268.967 284.134ZM199.782 325.635C199.654 325.566 199.511 325.53 199.366 325.53C199.221 325.53 199.078 325.566 198.95 325.635L191.899 329.872C191.662 330.008 191.638 330.23 191.899 330.366L197.38 333.651C197.509 333.721 197.652 333.757 197.797 333.757C197.941 333.757 198.084 333.721 198.213 333.651L205.263 329.415C205.501 329.266 205.525 329.044 205.263 328.921L199.782 325.635ZM288.359 272.523C288.23 272.454 288.088 272.418 287.943 272.418C287.798 272.418 287.655 272.454 287.527 272.523L280.476 276.76C280.227 276.895 280.203 277.118 280.476 277.254L285.957 280.539C286.086 280.609 286.229 280.645 286.373 280.645C286.518 280.645 286.661 280.609 286.79 280.539L293.84 276.303C294.078 276.167 294.102 275.932 293.84 275.809L288.359 272.523ZM318.273 254.403C318.144 254.334 318.002 254.298 317.857 254.298C317.712 254.298 317.569 254.334 317.441 254.403L311.71 257.837C311.472 257.985 311.448 258.207 311.71 258.343L317.191 261.629C317.32 261.695 317.463 261.73 317.607 261.73C317.752 261.73 317.894 261.695 318.023 261.629L323.754 258.195C323.992 258.047 324.016 257.825 323.754 257.701L318.273 254.403ZM337.023 240.816L342.754 237.383C343.003 237.234 343.015 237.012 342.754 236.876L337.272 233.591C337.143 233.524 337.001 233.49 336.856 233.49C336.712 233.49 336.57 233.524 336.44 233.591L330.709 237.024C330.472 237.173 330.448 237.395 330.709 237.518L336.191 240.804C336.324 240.88 336.473 240.919 336.624 240.919C336.776 240.919 336.925 240.88 337.058 240.804L337.023 240.816ZM302.9 242.471L308.619 239.038C308.868 238.889 308.892 238.667 308.678 238.544L303.197 235.258C303.069 235.188 302.926 235.151 302.781 235.151C302.636 235.151 302.493 235.188 302.365 235.258L296.634 238.766C296.384 238.914 296.373 239.137 296.634 239.272L302.115 242.558C302.244 242.604 302.381 242.619 302.517 242.604C302.652 242.59 302.783 242.544 302.9 242.471ZM280.655 274.586L297.407 264.544C297.645 264.396 297.668 264.173 297.407 264.037L291.926 260.752C291.796 260.685 291.654 260.651 291.51 260.651C291.365 260.651 291.223 260.685 291.094 260.752L274.389 270.88C274.151 271.028 274.127 271.251 274.389 271.374L279.87 274.66C279.998 274.71 280.135 274.729 280.27 274.716C280.406 274.703 280.538 274.659 280.655 274.586ZM327.856 245.806C327.986 245.87 328.128 245.903 328.272 245.903C328.416 245.903 328.558 245.87 328.688 245.806L334.419 242.36C334.657 242.224 334.681 241.99 334.419 241.866L328.974 238.605C328.845 238.536 328.702 238.5 328.557 238.5C328.413 238.5 328.27 238.536 328.141 238.605L322.411 242.039C322.173 242.187 322.149 242.41 322.411 242.546L327.856 245.806ZM320.865 241.076L326.584 237.642C326.833 237.494 326.857 237.271 326.643 237.148L321.162 233.862C321.034 233.792 320.891 233.755 320.746 233.755C320.601 233.755 320.458 233.792 320.33 233.862L314.599 237.296C314.349 237.444 314.326 237.667 314.599 237.803L320.08 241.088C320.201 241.153 320.333 241.19 320.469 241.196C320.604 241.202 320.739 241.178 320.865 241.125V241.076ZM272.284 279.613L278.015 276.167C278.253 276.019 278.277 275.796 278.015 275.673L272.534 272.387C272.405 272.318 272.263 272.282 272.118 272.282C271.973 272.282 271.83 272.318 271.702 272.387L265.971 275.821C265.733 275.969 265.709 276.191 265.971 276.327L271.452 279.613C271.579 279.684 271.719 279.726 271.863 279.735C272.007 279.743 272.151 279.718 272.284 279.662V279.613ZM309.344 256.911C309.473 256.977 309.616 257.012 309.76 257.012C309.904 257.012 310.047 256.977 310.176 256.911L315.907 253.477C316.157 253.329 316.18 253.106 315.907 252.983L310.426 249.697C310.297 249.628 310.155 249.592 310.01 249.592C309.865 249.592 309.722 249.628 309.594 249.697L303.875 253.131C303.625 253.279 303.601 253.501 303.875 253.637L309.344 256.911ZM230.421 304.711L236.152 301.278C236.39 301.129 236.414 300.907 236.152 300.784L230.671 297.498C230.542 297.429 230.4 297.393 230.255 297.393C230.11 297.393 229.967 297.429 229.839 297.498L224.108 300.932C223.87 301.08 223.846 301.302 224.108 301.438L229.589 304.724C229.716 304.796 229.857 304.837 230.001 304.843C230.145 304.85 230.289 304.822 230.421 304.761V304.711ZM238.744 299.697L244.475 296.263C244.724 296.115 244.736 295.892 244.475 295.756L238.994 292.471C238.864 292.407 238.721 292.374 238.578 292.374C238.434 292.374 238.292 292.407 238.161 292.471L232.443 295.917C232.193 296.053 232.169 296.288 232.383 296.411L237.864 299.697C238 299.793 238.158 299.848 238.321 299.857C238.485 299.865 238.648 299.827 238.792 299.746L238.744 299.697ZM222.004 309.738L227.734 306.305C227.972 306.157 227.996 305.934 227.734 305.798L222.253 302.513C222.124 302.446 221.981 302.412 221.837 302.412C221.693 302.412 221.55 302.446 221.421 302.513L215.69 305.947C215.452 306.095 215.429 306.317 215.69 306.441L221.171 309.726C221.301 309.814 221.449 309.865 221.603 309.876C221.758 309.887 221.912 309.857 222.051 309.788L222.004 309.738ZM255.496 289.655L261.227 286.209C261.465 286.073 261.489 285.85 261.227 285.715L255.746 282.429C255.617 282.363 255.474 282.328 255.33 282.328C255.186 282.328 255.043 282.363 254.914 282.429L249.314 285.937C249.064 286.085 249.052 286.307 249.314 286.443L254.795 289.729C254.915 289.778 255.043 289.802 255.172 289.797C255.301 289.793 255.427 289.761 255.544 289.704L255.496 289.655ZM247.174 294.67L252.893 291.236C253.142 291.088 253.166 290.865 252.893 290.742L247.423 287.444C247.294 287.377 247.152 287.343 247.007 287.343C246.863 287.343 246.721 287.377 246.591 287.444L240.86 290.878C240.611 291.026 240.587 291.248 240.86 291.372L246.341 294.67C246.467 294.744 246.608 294.787 246.752 294.795C246.896 294.804 247.041 294.778 247.174 294.719V294.67ZM263.914 284.628L269.645 281.194C269.883 281.046 269.906 280.823 269.645 280.687L264.164 277.402C264.034 277.335 263.892 277.301 263.748 277.301C263.603 277.301 263.461 277.335 263.332 277.402L257.636 280.922C257.399 281.07 257.375 281.293 257.636 281.416L263.118 284.702C263.243 284.761 263.381 284.79 263.519 284.786C263.657 284.781 263.792 284.744 263.914 284.677V284.628ZM309.606 214.767C309.734 214.836 309.877 214.872 310.022 214.872C310.167 214.872 310.309 214.836 310.438 214.767L316.157 211.333C316.406 211.185 316.43 210.962 316.157 210.827L314.694 209.95C314.565 209.883 314.422 209.849 314.278 209.849C314.134 209.849 313.991 209.883 313.862 209.95L308.131 213.383C307.893 213.532 307.87 213.754 308.131 213.877L309.606 214.767ZM267.992 242.138C268.121 242.207 268.264 242.243 268.408 242.243C268.553 242.243 268.696 242.207 268.825 242.138L274.543 238.704C274.793 238.556 274.817 238.334 274.543 238.198L269.062 234.912C268.933 234.846 268.791 234.811 268.646 234.811C268.502 234.811 268.359 234.846 268.23 234.912L262.499 238.346C262.25 238.494 262.226 238.717 262.499 238.84L267.992 242.138ZM284.733 232.096C284.861 232.165 285.004 232.202 285.149 232.202C285.294 232.202 285.436 232.165 285.565 232.096L291.296 228.662C291.533 228.514 291.557 228.292 291.296 228.156L285.815 224.87C285.685 224.807 285.542 224.773 285.398 224.773C285.255 224.773 285.112 224.807 284.982 224.87L279.252 228.316C279.014 228.452 278.99 228.687 279.252 228.811L284.733 232.096ZM257.767 248.277C257.897 248.343 258.039 248.378 258.183 248.378C258.328 248.378 258.47 248.343 258.6 248.277L264.33 244.843C264.568 244.695 264.592 244.472 264.33 244.349L258.849 241.063C258.721 240.994 258.578 240.958 258.433 240.958C258.288 240.958 258.146 240.994 258.017 241.063L252.286 244.497C252.037 244.645 252.025 244.868 252.286 245.004L257.767 248.277ZM276.362 237.16C276.492 237.227 276.634 237.261 276.779 237.261C276.923 237.261 277.065 237.227 277.195 237.16L282.925 233.727C283.163 233.578 283.187 233.356 282.925 233.232L277.444 229.947C277.316 229.878 277.173 229.841 277.028 229.841C276.883 229.841 276.741 229.878 276.612 229.947L270.881 233.381C270.644 233.529 270.62 233.751 270.881 233.887L276.362 237.16ZM240.991 258.368C241.121 258.434 241.263 258.469 241.407 258.469C241.552 258.469 241.694 258.434 241.823 258.368L247.554 254.934C247.804 254.786 247.816 254.564 247.554 254.44L242.18 251.118C242.052 251.048 241.909 251.012 241.764 251.012C241.619 251.012 241.476 251.048 241.348 251.118L235.629 254.551C235.379 254.7 235.356 254.922 235.629 255.058L240.991 258.368ZM249.373 253.341C249.502 253.41 249.645 253.446 249.789 253.446C249.934 253.446 250.077 253.41 250.206 253.341L255.924 249.907C256.174 249.759 256.198 249.537 255.924 249.401L250.455 246.115C250.326 246.049 250.183 246.014 250.039 246.014C249.895 246.014 249.752 246.049 249.623 246.115L243.892 249.549C243.643 249.697 243.619 249.92 243.892 250.043L249.373 253.341ZM292.829 224.858C292.958 224.927 293.101 224.963 293.246 224.963C293.39 224.963 293.533 224.927 293.662 224.858L299.392 221.424C299.642 221.276 299.654 221.054 299.392 220.918L297.93 220.053C297.804 219.984 297.663 219.948 297.52 219.948C297.377 219.948 297.236 219.984 297.11 220.053L291.379 223.487C291.129 223.635 291.105 223.858 291.379 223.981L292.829 224.858ZM317.952 209.801C318.081 209.868 318.224 209.902 318.368 209.902C318.512 209.902 318.655 209.868 318.784 209.801L324.515 206.368C324.753 206.219 324.777 205.997 324.515 205.874L323.053 204.997C322.924 204.927 322.781 204.891 322.636 204.891C322.492 204.891 322.349 204.927 322.22 204.997L316.49 208.43C316.252 208.579 316.228 208.801 316.49 208.937L317.952 209.801ZM329.461 216.706C329.59 216.772 329.733 216.807 329.877 216.807C330.022 216.807 330.164 216.772 330.293 216.706L336.024 213.272C336.262 213.124 336.286 212.902 336.024 212.778L330.543 209.493C330.414 209.423 330.272 209.387 330.127 209.387C329.982 209.387 329.839 209.423 329.711 209.493L323.98 212.926C323.742 213.075 323.718 213.297 323.98 213.433L329.461 216.706ZM345.405 235.777L351.136 232.343C351.385 232.195 351.409 231.973 351.136 231.849L345.655 228.563C345.526 228.494 345.383 228.458 345.238 228.458C345.094 228.458 344.951 228.494 344.822 228.563L339.103 231.997C338.854 232.145 338.83 232.368 339.103 232.504L344.573 235.789C344.706 235.858 344.853 235.892 345.002 235.89C345.151 235.888 345.297 235.849 345.429 235.777H345.405ZM301.2 219.843C301.329 219.91 301.471 219.944 301.616 219.944C301.76 219.944 301.903 219.91 302.032 219.843L307.763 216.409C308.012 216.261 308.036 216.039 307.763 215.915L306.312 215.038C306.183 214.972 306.04 214.937 305.896 214.937C305.752 214.937 305.609 214.972 305.48 215.038L299.749 218.485C299.499 218.62 299.488 218.843 299.749 218.979L301.2 219.843ZM232.668 263.383C232.797 263.452 232.94 263.488 233.085 263.488C233.229 263.488 233.372 263.452 233.501 263.383L239.231 259.949C239.469 259.801 239.493 259.578 239.231 259.443L233.75 256.157C233.621 256.091 233.479 256.056 233.334 256.056C233.19 256.056 233.048 256.091 232.918 256.157L227.187 259.591C226.95 259.739 226.926 259.961 227.187 260.085L232.668 263.383Z" fill="#455A64"/>
<path d="M256.625 312.888L257.873 313.629L290.95 333.466L349.791 298.177L351.016 297.448L316.691 276.871L256.625 312.888Z" fill="#263238"/>
<path d="M349.045 298.635L316.693 279.243L258.625 314.087L290.953 333.467L349.045 298.635Z" fill="#37474F"/>
<path d="M202.815 198.905L201.198 197.929C200.762 197.643 200.386 197.268 200.094 196.826C199.802 196.385 199.599 195.886 199.498 195.36L192.495 140.383C192.491 139.985 192.381 139.596 192.177 139.259C191.972 138.922 191.682 138.651 191.338 138.475C190.994 138.3 190.61 138.227 190.229 138.265C189.847 138.303 189.483 138.451 189.178 138.691L153.129 160.282C152.37 160.74 151.467 160.868 150.618 160.636C149.769 160.405 149.043 159.833 148.599 159.046L147.41 156.934C146.964 156.147 146.235 155.575 145.384 155.343C144.533 155.112 143.629 155.24 142.868 155.699L126.199 165.679C125.384 166.227 124.727 166.994 124.298 167.899C123.869 168.804 123.683 169.812 123.762 170.818L132.084 235.812C132.187 236.327 132.387 236.816 132.673 237.251C132.959 237.685 133.324 238.057 133.749 238.344L135.378 239.307C135.52 239.421 135.69 239.491 135.868 239.511C136.046 239.53 136.226 239.498 136.388 239.419L203.838 198.967C203.677 199.052 203.498 199.091 203.318 199.081C203.138 199.07 202.965 199.009 202.815 198.905Z" fill="#263238"/>
<path opacity="0.25" d="M202.815 198.905L201.198 197.929C200.762 197.643 200.386 197.268 200.094 196.826C199.802 196.385 199.599 195.886 199.498 195.36L192.495 140.383C192.491 139.985 192.381 139.596 192.177 139.259C191.972 138.922 191.682 138.651 191.338 138.475C190.994 138.3 190.61 138.227 190.229 138.265C189.847 138.303 189.483 138.451 189.178 138.691L153.129 160.282C152.37 160.74 151.467 160.868 150.618 160.636C149.769 160.405 149.043 159.833 148.599 159.046L147.41 156.934C146.964 156.147 146.235 155.575 145.384 155.343C144.533 155.112 143.629 155.24 142.868 155.699L126.199 165.679C125.384 166.227 124.727 166.994 124.298 167.899C123.869 168.804 123.683 169.812 123.762 170.818L132.084 235.812C132.187 236.327 132.387 236.816 132.673 237.251C132.959 237.685 133.324 238.057 133.749 238.344L135.378 239.307C135.52 239.421 135.69 239.491 135.868 239.511C136.046 239.53 136.226 239.498 136.388 239.419L203.838 198.967C203.677 199.052 203.498 199.091 203.318 199.081C203.138 199.07 202.965 199.009 202.815 198.905Z" fill="black"/>
<path opacity="0.25" d="M133.752 238.344L135.38 239.308C135.523 239.421 135.692 239.491 135.871 239.511C136.049 239.53 136.229 239.499 136.391 239.419L203.84 198.967C203.677 199.047 203.496 199.08 203.316 199.063C203.136 199.045 202.964 198.978 202.818 198.868L201.201 197.893C200.775 197.616 200.414 197.245 200.143 196.806L132.693 237.294C132.972 237.717 133.333 238.074 133.752 238.344Z" fill="black"/>
<path d="M134.105 232.514V177.821C134.141 177.129 134.333 176.456 134.666 175.855C134.998 175.254 135.462 174.743 136.02 174.363L195.134 138.913C196.193 138.271 197.049 138.79 197.049 140.062V194.792C197.014 195.483 196.822 196.155 196.489 196.754C196.157 197.353 195.692 197.862 195.134 198.238L136.067 233.675C135.009 234.305 134.105 233.786 134.105 232.514Z" fill="#F0F0F0"/>
<path d="M136.391 239.456C136.537 239.348 136.654 239.203 136.729 239.033C136.804 238.864 136.835 238.678 136.819 238.492V184.33C136.873 183.293 137.162 182.285 137.662 181.385C138.162 180.486 138.859 179.722 139.696 179.155L201.379 142.162C202.972 141.211 204.256 142.001 204.256 143.879V198.041C204.275 198.225 204.246 198.411 204.173 198.581C204.1 198.75 203.985 198.896 203.84 199.004L136.391 239.456Z" fill="#263238"/>
<path opacity="0.15" d="M136.391 239.456C136.537 239.348 136.654 239.203 136.729 239.033C136.804 238.864 136.835 238.678 136.819 238.492V184.33C136.873 183.293 137.162 182.285 137.662 181.385C138.162 180.486 138.859 179.722 139.696 179.155L201.379 142.162C202.972 141.211 204.256 142.001 204.256 143.879V198.041C204.275 198.225 204.246 198.411 204.173 198.581C204.1 198.75 203.985 198.896 203.84 199.004L136.391 239.456Z" fill="white"/>
<path d="M247.298 130.806C246.996 130.421 246.8 129.959 246.729 129.468C246.658 128.977 246.715 128.475 246.893 128.015C247.319 126.708 248.037 125.524 248.987 124.56C249.938 123.596 251.094 122.88 252.363 122.469C252.81 122.292 253.295 122.244 253.766 122.331C254.237 122.418 254.677 122.636 255.038 122.963L288.495 155.88C288.965 156.412 289.279 157.072 289.401 157.783C289.523 158.494 289.448 159.226 289.184 159.894C288.586 161.722 287.58 163.377 286.25 164.725C284.919 166.073 283.301 167.076 281.528 167.651C280.877 167.908 280.17 167.968 279.488 167.824C278.806 167.68 278.177 167.337 277.675 166.836L247.298 130.806Z" fill="#231F20"/>
<path d="M252.315 122.469C254.693 121.839 256.06 123.308 255.406 125.754C254.976 127.058 254.256 128.239 253.306 129.203C252.357 130.166 251.203 130.884 249.937 131.3C247.559 131.918 246.192 130.448 246.858 128.014C247.282 126.709 247.998 125.526 248.946 124.562C249.895 123.598 251.049 122.881 252.315 122.469Z" fill="#231F20"/>
<g opacity="0.25">
<path d="M252.315 122.469C254.693 121.839 256.06 123.308 255.406 125.754C254.976 127.058 254.256 128.239 253.306 129.203C252.357 130.166 251.203 130.884 249.937 131.3C247.559 131.918 246.192 130.448 246.858 128.014C247.282 126.709 247.998 125.526 248.946 124.562C249.895 123.598 251.049 122.881 252.315 122.469Z" fill="#231F20"/>
</g>
<path d="M237.915 116.231C238.174 115.441 238.608 114.726 239.183 114.142C239.757 113.558 240.455 113.123 241.221 112.872C241.492 112.767 241.786 112.74 242.07 112.795C242.355 112.849 242.62 112.982 242.838 113.18L253.538 124.519C253.718 124.754 253.834 125.035 253.876 125.332C253.918 125.629 253.883 125.933 253.776 126.211C253.519 127.001 253.085 127.716 252.511 128.298C251.936 128.88 251.237 129.312 250.471 129.559C250.201 129.665 249.908 129.694 249.623 129.641C249.338 129.589 249.073 129.458 248.854 129.262L238.153 117.936C237.971 117.699 237.854 117.417 237.812 117.117C237.77 116.817 237.806 116.512 237.915 116.231Z" fill="#37474F"/>
<path d="M241.22 112.871C241.032 112.925 240.849 112.995 240.673 113.081H240.578C240.418 113.158 240.263 113.245 240.114 113.341C239.068 113.996 238.286 115.023 237.914 116.231C237.807 116.51 237.772 116.813 237.814 117.11C237.856 117.407 237.972 117.688 238.152 117.923L240.708 120.641C241.628 120.005 242.488 119.282 243.276 118.479L252.705 128.039C253.186 127.518 253.544 126.888 253.751 126.199C253.858 125.92 253.893 125.617 253.851 125.319C253.809 125.022 253.693 124.742 253.513 124.507L242.813 113.168C242.596 112.976 242.335 112.848 242.055 112.796C241.775 112.744 241.487 112.77 241.22 112.871Z" fill="#455A64"/>
<path d="M254.383 127.953L288.161 162.266C288.607 161.528 288.955 160.73 289.195 159.894C289.46 159.226 289.535 158.492 289.411 157.78C289.286 157.069 288.968 156.409 288.494 155.88L255.049 122.963C255.347 123.35 255.541 123.812 255.612 124.302C255.683 124.792 255.628 125.293 255.453 125.754C255.215 126.543 254.853 127.286 254.383 127.953Z" fill="#231F20"/>
<path opacity="0.3" d="M254.383 127.953L288.161 162.266C288.607 161.528 288.955 160.73 289.195 159.894C289.46 159.226 289.535 158.492 289.411 157.78C289.286 157.069 288.968 156.409 288.494 155.88L255.049 122.963C255.347 123.35 255.541 123.812 255.612 124.302C255.683 124.792 255.628 125.293 255.453 125.754C255.215 126.543 254.853 127.286 254.383 127.953Z" fill="white"/>
<path d="M206.256 136.315C211.665 139.551 219.12 139.082 227.371 134.141C243.862 124.26 257.226 100.199 257.226 80.4115C257.226 70.5302 253.885 63.5762 248.487 60.3401L242.423 56.6346C237.014 53.3984 229.547 53.8678 221.308 58.8085C204.817 68.6898 191.453 92.7508 191.453 112.538C191.453 122.419 194.794 129.373 200.192 132.61L206.256 136.315ZM253.148 80.4115C253.148 89.2553 250.235 99.3589 244.944 108.82C239.653 118.282 232.698 126.113 225.326 130.46C218.668 134.462 212.616 135.228 208.301 132.634C203.985 130.04 201.595 124.223 201.595 116.231C201.595 107.4 204.508 97.2962 209.799 87.8225C215.089 78.3488 222.045 70.6413 229.416 66.2194C236.074 62.2299 242.114 61.4517 246.442 64.0456C250.77 66.6394 253.148 72.4323 253.148 80.4115Z" fill="#231F20"/>
<path opacity="0.6" d="M206.256 136.315C211.665 139.551 219.12 139.082 227.371 134.141C243.862 124.26 257.226 100.199 257.226 80.4115C257.226 70.5302 253.885 63.5762 248.487 60.3401L242.423 56.6346C237.014 53.3984 229.547 53.8678 221.308 58.8085C204.817 68.6898 191.453 92.7508 191.453 112.538C191.453 122.419 194.794 129.373 200.192 132.61L206.256 136.315ZM253.148 80.4115C253.148 89.2553 250.235 99.3589 244.944 108.82C239.653 118.282 232.698 126.113 225.326 130.46C218.668 134.462 212.616 135.228 208.301 132.634C203.985 130.04 201.595 124.223 201.595 116.231C201.595 107.4 204.508 97.2962 209.799 87.8225C215.089 78.3488 222.045 70.6413 229.416 66.2194C236.074 62.2299 242.114 61.4517 246.442 64.0456C250.77 66.6394 253.148 72.4323 253.148 80.4115Z" fill="white"/>
<path d="M227.347 62.5017C210.856 72.383 197.492 96.444 197.492 116.231C197.492 136.019 210.856 144.023 227.347 134.141C243.838 124.26 257.225 100.174 257.225 80.4115C257.225 60.6489 243.861 52.6203 227.347 62.5017ZM246.37 64.0086C250.686 66.6024 253.076 72.4324 253.076 80.4115C253.076 89.243 250.163 99.3466 244.872 108.82C239.581 118.294 232.697 126.113 225.326 130.46C218.667 134.462 212.628 135.228 208.3 132.634C203.972 130.04 201.594 124.223 201.594 116.231C201.594 107.4 204.507 97.2962 209.798 87.8225C215.089 78.3488 222.044 70.629 229.416 66.2195C236.074 62.1929 242.114 61.4147 246.441 64.0086H246.37Z" fill="#231F20"/>
<path opacity="0.3" d="M227.347 62.5017C210.856 72.383 197.492 96.444 197.492 116.231C197.492 136.019 210.856 144.023 227.347 134.141C243.838 124.26 257.225 100.174 257.225 80.4115C257.225 60.6489 243.861 52.6203 227.347 62.5017ZM246.37 64.0086C250.686 66.6024 253.076 72.4324 253.076 80.4115C253.076 89.243 250.163 99.3466 244.872 108.82C239.581 118.294 232.697 126.113 225.326 130.46C218.667 134.462 212.628 135.228 208.3 132.634C203.972 130.04 201.594 124.223 201.594 116.231C201.594 107.4 204.507 97.2962 209.798 87.8225C215.089 78.3488 222.044 70.629 229.416 66.2195C236.074 62.1929 242.114 61.4147 246.441 64.0086H246.37Z" fill="white"/>
<path opacity="0.3" d="M197.517 116.232C197.517 103.25 203.271 88.4281 211.891 76.9782L211.82 77.0646L205.78 73.4209C197.184 84.8585 191.453 99.6311 191.453 112.588C191.453 122.469 194.794 129.423 200.204 132.659L206.256 136.365L206.577 136.55C200.989 133.339 197.517 126.311 197.517 116.232Z" fill="#231F20"/>
<path d="M246.442 64.0088C244.674 62.9718 242.669 62.4511 240.639 62.5019C242.474 66.1854 243.351 70.3024 243.184 74.446C243.184 83.2774 240.283 93.381 234.992 102.855C229.701 112.328 222.734 120.036 215.374 124.445C211.998 126.665 208.128 127.941 204.139 128.151C205.118 129.996 206.555 131.535 208.3 132.61C212.616 135.204 218.668 134.438 225.338 130.436C232.685 126.113 239.665 118.381 244.943 108.821C250.222 99.2604 253.147 89.1938 253.147 80.4118C253.147 72.4203 250.769 66.6027 246.442 64.0088Z" fill="#231F20"/>
<path opacity="0.4" d="M248.641 77.7061C248.641 86.5499 245.728 96.6535 240.437 106.115C235.146 115.576 228.191 123.296 220.819 127.706C215.326 131.003 210.249 132.103 206.219 130.929C203.223 127.878 201.594 122.765 201.594 116.181C201.594 107.35 204.507 97.2464 209.798 87.7727C215.088 78.299 222.044 70.5792 229.415 66.1697C234.908 62.8718 239.985 61.7725 244.016 62.9459C247.012 66.0091 248.641 71.1227 248.641 77.7061Z" fill="white"/>
<path opacity="0.1" d="M249.473 60.9828C249.593 61.0664 249.708 61.1571 249.818 61.2545L249.248 60.8345L249.01 60.6616L249.307 60.8592L249.473 60.9828Z" fill="#231F20"/>
<path opacity="0.1" d="M249.937 61.3402C250.028 61.3995 250.112 61.47 250.187 61.5502C250.075 61.4458 249.956 61.3508 249.83 61.2661L249.937 61.3402Z" fill="#231F20"/>
<path opacity="0.1" d="M251.494 62.7488L250.959 62.23C251.076 62.3306 251.187 62.4378 251.292 62.5511L251.494 62.7488Z" fill="#231F20"/>
</svg>
